<mxfile host="Electron" modified="2024-01-23T02:24:48.779Z" agent="Mozilla/5.0 (Windows NT 10.0; Win64; x64) AppleWebKit/537.36 (KHTML, like Gecko) draw.io/21.4.0 Chrome/112.0.5615.204 Electron/24.5.1 Safari/537.36" etag="r0IXXKaFEO-yeWm5cwlB" version="21.4.0" type="device">
  <diagram name="第 1 页" id="d-oONYDvkslP9Kuh5f9c">
    <mxGraphModel dx="-919" dy="917" grid="1" gridSize="10" guides="1" tooltips="1" connect="1" arrows="1" fold="1" page="1" pageScale="1" pageWidth="827" pageHeight="1169" math="0" shadow="0">
      <root>
        <mxCell id="0" />
        <mxCell id="1" parent="0" />
        <mxCell id="paPOsLPfxtRE4p_XzSm2-2" value="Kubelet" style="swimlane;fontStyle=1;align=center;verticalAlign=top;childLayout=stackLayout;horizontal=1;startSize=26;horizontalStack=0;resizeParent=1;resizeParentMax=0;resizeLast=0;collapsible=1;marginBottom=0;whiteSpace=wrap;html=1;fontFamily=Tahoma;" vertex="1" parent="1">
          <mxGeometry x="3030" y="490" width="250" height="138" as="geometry" />
        </mxCell>
        <mxCell id="paPOsLPfxtRE4p_XzSm2-3" value="- dev:&amp;nbsp;vxlanDevice&lt;br&gt;-&amp;nbsp;subnetMgr: subnet.Manager&lt;br&gt;+ backend.SimpleNetwork" style="text;strokeColor=none;fillColor=none;align=left;verticalAlign=top;spacingLeft=4;spacingRight=4;overflow=hidden;rotatable=0;points=[[0,0.5],[1,0.5]];portConstraint=eastwest;whiteSpace=wrap;html=1;fontFamily=Tahoma;" vertex="1" parent="paPOsLPfxtRE4p_XzSm2-2">
          <mxGeometry y="26" width="250" height="44" as="geometry" />
        </mxCell>
        <mxCell id="paPOsLPfxtRE4p_XzSm2-4" value="" style="line;strokeWidth=1;fillColor=none;align=left;verticalAlign=middle;spacingTop=-1;spacingLeft=3;spacingRight=3;rotatable=0;labelPosition=right;points=[];portConstraint=eastwest;strokeColor=inherit;fontFamily=Tahoma;" vertex="1" parent="paPOsLPfxtRE4p_XzSm2-2">
          <mxGeometry y="70" width="250" height="8" as="geometry" />
        </mxCell>
        <mxCell id="paPOsLPfxtRE4p_XzSm2-5" value="-&amp;nbsp;handleSubnetEvents()" style="text;strokeColor=none;fillColor=none;align=left;verticalAlign=top;spacingLeft=4;spacingRight=4;overflow=hidden;rotatable=0;points=[[0,0.5],[1,0.5]];portConstraint=eastwest;whiteSpace=wrap;html=1;fontFamily=Tahoma;" vertex="1" parent="paPOsLPfxtRE4p_XzSm2-2">
          <mxGeometry y="78" width="250" height="60" as="geometry" />
        </mxCell>
        <mxCell id="paPOsLPfxtRE4p_XzSm2-6" value="&lt;p style=&quot;margin:0px;margin-top:4px;text-align:center;&quot;&gt;&lt;i&gt;&amp;lt;&amp;lt;Interface&amp;gt;&amp;gt;&lt;/i&gt;&lt;br&gt;&lt;b&gt;SyncHandler&lt;/b&gt;&lt;br&gt;&lt;/p&gt;&lt;hr size=&quot;1&quot;&gt;&lt;p style=&quot;margin:0px;margin-left:4px;&quot;&gt;+ Lease(): *lease.Lease&lt;/p&gt;&lt;p style=&quot;margin:0px;margin-left:4px;&quot;&gt;+ MTU(): int&lt;/p&gt;&lt;p style=&quot;margin:0px;margin-left:4px;&quot;&gt;&lt;span style=&quot;background-color: initial;&quot;&gt;+ Run(ctx context.Context)&lt;/span&gt;&lt;/p&gt;" style="verticalAlign=top;align=left;overflow=fill;fontSize=12;fontFamily=Tahoma;html=1;whiteSpace=wrap;" vertex="1" parent="1">
          <mxGeometry x="3060" y="140" width="190" height="100" as="geometry" />
        </mxCell>
      </root>
    </mxGraphModel>
  </diagram>
</mxfile>
